<svg xmlns="http://www.w3.org/2000/svg" xmlns:xlink="http://www.w3.org/1999/xlink" width="500" zoomAndPan="magnify" viewBox="0 0 375 374.999991" height="500" preserveAspectRatio="xMidYMid meet" version="1.0"><defs><clipPath id="3c5c79fbb0"><path d="M 108.335938 126.429688 L 176.132812 126.429688 L 176.132812 248 L 108.335938 248 Z M 108.335938 126.429688 " clip-rule="nonzero"/></clipPath><clipPath id="2362c98355"><path d="M 183 126.085938 L 266 126.085938 L 266 248.96875 L 183 248.96875 Z M 183 126.085938 " clip-rule="nonzero"/></clipPath></defs><g clip-path="url(#3c5c79fbb0)"><path fill="#00bf63" d="M 138.800781 247.832031 L 162.125 214.140625 L 187.875 214.140625 L 187.875 247.832031 L 215.851562 247.832031 L 215.851562 126.90625 L 163.503906 126.90625 C 152.804688 126.90625 143.507812 128.695312 135.621094 132.265625 C 127.71875 135.824219 121.644531 140.886719 117.386719 147.453125 C 113.117188 154.023438 110.980469 161.796875 110.980469 170.78125 C 110.980469 179.761719 113.148438 187.511719 117.472656 194.015625 C 121.789062 200.527344 127.921875 205.507812 135.863281 208.960938 L 108.734375 247.832031 Z M 139.332031 170.78125 C 139.332031 163.992188 141.523438 158.78125 145.894531 155.148438 C 150.269531 151.515625 156.65625 149.699219 165.0625 149.699219 L 187.875 149.699219 L 187.875 191.859375 L 165.0625 191.859375 C 156.65625 191.859375 150.269531 190.027344 145.894531 186.34375 C 141.523438 182.652344 139.332031 177.46875 139.332031 170.78125 Z M 139.332031 170.78125 " fill-opacity="1" fill-rule="nonzero"/></g><g clip-path="url(#2362c98355)"><path fill="#121212" d="M 226.6875 248.242188 C 234.757812 248.242188 242.171875 246.734375 248.925781 243.726562 C 255.679688 240.714844 261.214844 236.433594 265.527344 230.875 L 250.195312 212.476562 C 243.722656 221.21875 236.339844 225.589844 228.050781 225.589844 C 216.808594 225.589844 211.183594 219.003906 211.183594 205.832031 L 211.183594 149.101562 L 253.089844 149.101562 L 253.089844 126.953125 L 183.753906 126.953125 L 183.753906 204.296875 C 183.753906 218.945312 187.390625 229.933594 194.671875 237.257812 C 201.941406 244.582031 212.609375 248.242188 226.6875 248.242188 Z M 226.6875 248.242188 " fill-opacity="1" fill-rule="nonzero"/></g></svg>