<svg xmlns="http://www.w3.org/2000/svg" xmlns:xlink="http://www.w3.org/1999/xlink" width="500" zoomAndPan="magnify" viewBox="0 0 375 374.999991" height="500" preserveAspectRatio="xMidYMid meet" version="1.0"><defs><g/><clipPath id="a163cd53e3"><path d="M 108.335938 104.496094 L 176.132812 104.496094 L 176.132812 226 L 108.335938 226 Z M 108.335938 104.496094 " clip-rule="nonzero"/></clipPath></defs><g clip-path="url(#a163cd53e3)"><path fill="#00bf63" d="M 138.800781 225.898438 L 162.125 192.210938 L 187.875 192.210938 L 187.875 225.898438 L 215.851562 225.898438 L 215.851562 104.976562 L 163.503906 104.976562 C 152.804688 104.976562 143.507812 106.765625 135.621094 110.332031 C 127.71875 113.890625 121.644531 118.957031 117.386719 125.523438 C 113.117188 132.09375 110.980469 139.863281 110.980469 148.847656 C 110.980469 157.832031 113.148438 165.582031 117.472656 172.085938 C 121.789062 178.59375 127.921875 183.578125 135.863281 187.027344 L 108.734375 225.898438 Z M 139.332031 148.847656 C 139.332031 142.058594 141.523438 136.851562 145.894531 133.214844 C 150.269531 129.585938 156.65625 127.769531 165.0625 127.769531 L 187.875 127.769531 L 187.875 169.929688 L 165.0625 169.929688 C 156.65625 169.929688 150.269531 168.09375 145.894531 164.414062 C 141.523438 160.722656 139.332031 155.535156 139.332031 148.847656 Z M 139.332031 148.847656 " fill-opacity="1" fill-rule="nonzero"/></g><path fill="#121212" d="M 226.6875 226.3125 C 234.757812 226.3125 242.171875 224.804688 248.925781 221.792969 C 255.679688 218.785156 261.214844 214.503906 265.527344 208.941406 L 250.195312 190.542969 C 243.722656 199.289062 236.339844 203.65625 228.050781 203.65625 C 216.808594 203.65625 211.183594 197.074219 211.183594 183.898438 L 211.183594 127.167969 L 253.089844 127.167969 L 253.089844 105.023438 L 183.753906 105.023438 L 183.753906 182.363281 C 183.753906 197.011719 187.390625 208 194.671875 215.324219 C 201.941406 222.648438 212.609375 226.3125 226.6875 226.3125 Z M 226.6875 226.3125 " fill-opacity="1" fill-rule="nonzero"/><g fill="#121212" fill-opacity="1"><g transform="translate(115.76651, 267.637307)"><g><path d="M 14.046875 0 L 14.046875 -20.40625 L 1.40625 -20.40625 L 1.40625 -25.203125 L 32.359375 -25.203125 L 32.359375 -20.40625 L 19.734375 -20.40625 L 19.734375 0 Z M 14.046875 0 "/></g></g></g><g fill="#121212" fill-opacity="1"><g transform="translate(149.523511, 267.637307)"><g><path d="M 17.25 0.359375 C 13.550781 0.359375 10.535156 -0.148438 8.203125 -1.171875 C 5.878906 -2.191406 4.164062 -3.671875 3.0625 -5.609375 C 1.957031 -7.554688 1.40625 -9.898438 1.40625 -12.640625 C 1.40625 -15.367188 1.957031 -17.695312 3.0625 -19.625 C 4.164062 -21.5625 5.878906 -23.035156 8.203125 -24.046875 C 10.535156 -25.054688 13.550781 -25.5625 17.25 -25.5625 C 20.9375 -25.5625 23.941406 -25.050781 26.265625 -24.03125 C 28.597656 -23.007812 30.316406 -21.535156 31.421875 -19.609375 C 32.523438 -17.691406 33.078125 -15.367188 33.078125 -12.640625 C 33.078125 -9.898438 32.523438 -7.5625 31.421875 -5.625 C 30.316406 -3.695312 28.597656 -2.21875 26.265625 -1.1875 C 23.941406 -0.15625 20.9375 0.359375 17.25 0.359375 Z M 17.25 -4.421875 C 20.800781 -4.421875 23.378906 -5.0625 24.984375 -6.34375 C 26.585938 -7.632812 27.390625 -9.734375 27.390625 -12.640625 C 27.390625 -15.515625 26.59375 -17.585938 25 -18.859375 C 23.40625 -20.128906 20.820312 -20.765625 17.25 -20.765625 C 13.695312 -20.765625 11.113281 -20.132812 9.5 -18.875 C 7.894531 -17.613281 7.09375 -15.535156 7.09375 -12.640625 C 7.09375 -9.734375 7.894531 -7.632812 9.5 -6.34375 C 11.113281 -5.0625 13.695312 -4.421875 17.25 -4.421875 Z M 17.25 -4.421875 "/></g></g></g><g fill="#121212" fill-opacity="1"><g transform="translate(184.000278, 267.637307)"><g><path d="M 1.765625 0 L 1.765625 -25.203125 L 7.453125 -25.203125 L 7.453125 -11.265625 L 27.1875 -25.203125 L 36.03125 -25.203125 L 20.625 -14.1875 L 36.03125 0 L 28.15625 0 L 16.34375 -11.015625 L 7.453125 -4.828125 L 7.453125 0 Z M 1.765625 0 "/></g></g></g><g fill="#121212" fill-opacity="1"><g transform="translate(221.428074, 267.637307)"><g><path d="M 16.0625 0 L 16.0625 -8.28125 L 1.40625 -25.203125 L 8.421875 -25.203125 L 18.90625 -13.109375 L 29.40625 -25.203125 L 36.390625 -25.203125 L 21.75 -8.28125 L 21.75 0 Z M 16.0625 0 "/></g></g></g></svg>