<svg xmlns="http://www.w3.org/2000/svg" xmlns:xlink="http://www.w3.org/1999/xlink" width="500" zoomAndPan="magnify" viewBox="0 0 375 374.999991" height="500" preserveAspectRatio="xMidYMid meet" version="1.0"><defs><g/><clipPath id="e6ceadd0d9"><path d="M 33.34375 149.402344 L 76.019531 149.402344 L 76.019531 225.472656 L 33.34375 225.472656 Z M 33.34375 149.402344 " clip-rule="nonzero"/></clipPath><clipPath id="ba8b959afa"><path d="M 80 149.1875 L 132 149.1875 L 132 225.878906 L 80 225.878906 Z M 80 149.1875 " clip-rule="nonzero"/></clipPath></defs><g clip-path="url(#e6ceadd0d9)"><path fill="#00bf63" d="M 52.339844 225.136719 L 66.890625 204.117188 L 82.957031 204.117188 L 82.957031 225.136719 L 100.40625 225.136719 L 100.40625 149.699219 L 67.753906 149.699219 C 61.078125 149.699219 55.277344 150.816406 50.355469 153.039062 C 45.429688 155.261719 41.636719 158.421875 38.980469 162.515625 C 36.316406 166.613281 34.984375 171.464844 34.984375 177.066406 C 34.984375 182.671875 36.339844 187.507812 39.035156 191.5625 C 41.726562 195.625 45.554688 198.734375 50.507812 200.886719 L 33.585938 225.136719 Z M 52.671875 177.066406 C 52.671875 172.832031 54.039062 169.582031 56.765625 167.316406 C 59.496094 165.050781 63.480469 163.917969 68.722656 163.917969 L 82.957031 163.917969 L 82.957031 190.21875 L 68.722656 190.21875 C 63.480469 190.21875 59.496094 189.074219 56.765625 186.777344 C 54.039062 184.476562 52.671875 181.238281 52.671875 177.066406 Z M 52.671875 177.066406 " fill-opacity="1" fill-rule="nonzero"/></g><g clip-path="url(#ba8b959afa)"><path fill="#121212" d="M 107.179688 225.390625 C 112.214844 225.390625 116.835938 224.449219 121.050781 222.574219 C 125.265625 220.695312 128.71875 218.023438 131.40625 214.558594 L 121.84375 203.078125 C 117.804688 208.535156 113.199219 211.261719 108.027344 211.261719 C 101.015625 211.261719 97.507812 207.152344 97.507812 198.933594 L 97.507812 163.542969 L 123.648438 163.542969 L 123.648438 149.726562 L 80.394531 149.726562 L 80.394531 197.976562 C 80.394531 207.113281 82.664062 213.96875 87.207031 218.539062 C 91.742188 223.105469 98.394531 225.390625 107.179688 225.390625 Z M 107.179688 225.390625 " fill-opacity="1" fill-rule="nonzero"/></g><g fill="#121212" fill-opacity="1"><g transform="translate(144.780127, 180.749988)"><g><path d="M 7.75 -19.296875 L 0.140625 -19.296875 L 0.140625 -23.796875 L 20.859375 -23.796875 L 20.859375 -19.296875 L 13.25 -19.296875 L 13.25 0 L 7.75 0 Z M 7.75 -19.296875 "/></g></g></g><g fill="#121212" fill-opacity="1"><g transform="translate(165.775239, 180.749988)"><g><path d="M 14.34375 0.40625 C 11.875 0.40625 9.644531 -0.125 7.65625 -1.1875 C 5.675781 -2.25 4.125 -3.710938 3 -5.578125 C 1.882812 -7.453125 1.328125 -9.554688 1.328125 -11.890625 C 1.328125 -14.222656 1.882812 -16.320312 3 -18.1875 C 4.125 -20.0625 5.675781 -21.53125 7.65625 -22.59375 C 9.644531 -23.664062 11.875 -24.203125 14.34375 -24.203125 C 16.8125 -24.203125 19.03125 -23.664062 21 -22.59375 C 22.96875 -21.53125 24.519531 -20.0625 25.65625 -18.1875 C 26.789062 -16.320312 27.359375 -14.222656 27.359375 -11.890625 C 27.359375 -9.554688 26.789062 -7.453125 25.65625 -5.578125 C 24.519531 -3.710938 22.96875 -2.25 21 -1.1875 C 19.03125 -0.125 16.8125 0.40625 14.34375 0.40625 Z M 14.34375 -4.28125 C 15.75 -4.28125 17.015625 -4.601562 18.140625 -5.25 C 19.273438 -5.894531 20.164062 -6.796875 20.8125 -7.953125 C 21.457031 -9.109375 21.78125 -10.421875 21.78125 -11.890625 C 21.78125 -13.367188 21.457031 -14.679688 20.8125 -15.828125 C 20.164062 -16.984375 19.273438 -17.882812 18.140625 -18.53125 C 17.015625 -19.175781 15.75 -19.5 14.34375 -19.5 C 12.9375 -19.5 11.664062 -19.175781 10.53125 -18.53125 C 9.40625 -17.882812 8.519531 -16.984375 7.875 -15.828125 C 7.226562 -14.679688 6.90625 -13.367188 6.90625 -11.890625 C 6.90625 -10.421875 7.226562 -9.109375 7.875 -7.953125 C 8.519531 -6.796875 9.40625 -5.894531 10.53125 -5.25 C 11.664062 -4.601562 12.9375 -4.28125 14.34375 -4.28125 Z M 14.34375 -4.28125 "/></g></g></g><g fill="#121212" fill-opacity="1"><g transform="translate(194.44818, 180.749988)"><g><path d="M 11.484375 -9.34375 L 8.296875 -6.015625 L 8.296875 0 L 2.828125 0 L 2.828125 -23.796875 L 8.296875 -23.796875 L 8.296875 -12.671875 L 18.828125 -23.796875 L 24.9375 -23.796875 L 15.09375 -13.1875 L 25.515625 0 L 19.09375 0 Z M 11.484375 -9.34375 "/></g></g></g><g fill="#121212" fill-opacity="1"><g transform="translate(219.587964, 180.749988)"><g><path d="M 14.234375 -8.421875 L 14.234375 0 L 8.734375 0 L 8.734375 -8.5 L -0.46875 -23.796875 L 5.375 -23.796875 L 11.71875 -13.21875 L 18.078125 -23.796875 L 23.484375 -23.796875 Z M 14.234375 -8.421875 "/></g></g></g><g fill="#121212" fill-opacity="1"><g transform="translate(144.780127, 217.499986)"><g><path d="M 24.640625 -23.796875 L 24.640625 0 L 20.125 0 L 8.265625 -14.4375 L 8.265625 0 L 2.828125 0 L 2.828125 -23.796875 L 7.375 -23.796875 L 19.203125 -9.34375 L 19.203125 -23.796875 Z M 24.640625 -23.796875 "/></g></g></g><g fill="#121212" fill-opacity="1"><g transform="translate(172.230049, 217.499986)"><g><path d="M 21.234375 -4.421875 L 21.234375 0 L 2.828125 0 L 2.828125 -23.796875 L 20.796875 -23.796875 L 20.796875 -19.375 L 8.296875 -19.375 L 8.296875 -14.203125 L 19.34375 -14.203125 L 19.34375 -9.921875 L 8.296875 -9.921875 L 8.296875 -4.421875 Z M 21.234375 -4.421875 "/></g></g></g><g fill="#121212" fill-opacity="1"><g transform="translate(195.025717, 217.499986)"><g><path d="M 7.75 -19.296875 L 0.140625 -19.296875 L 0.140625 -23.796875 L 20.859375 -23.796875 L 20.859375 -19.296875 L 13.25 -19.296875 L 13.25 0 L 7.75 0 Z M 7.75 -19.296875 "/></g></g></g><g fill="#121212" fill-opacity="1"><g transform="translate(216.020829, 217.499986)"><g><path d="M 38.78125 -23.796875 L 31 0 L 25.078125 0 L 19.84375 -16.109375 L 14.4375 0 L 8.5625 0 L 0.75 -23.796875 L 6.453125 -23.796875 L 11.828125 -7.0625 L 17.4375 -23.796875 L 22.53125 -23.796875 L 27.96875 -6.9375 L 33.515625 -23.796875 Z M 38.78125 -23.796875 "/></g></g></g><g fill="#121212" fill-opacity="1"><g transform="translate(255.53105, 217.499986)"><g><path d="M 14.34375 0.40625 C 11.875 0.40625 9.644531 -0.125 7.65625 -1.1875 C 5.675781 -2.25 4.125 -3.710938 3 -5.578125 C 1.882812 -7.453125 1.328125 -9.554688 1.328125 -11.890625 C 1.328125 -14.222656 1.882812 -16.320312 3 -18.1875 C 4.125 -20.0625 5.675781 -21.53125 7.65625 -22.59375 C 9.644531 -23.664062 11.875 -24.203125 14.34375 -24.203125 C 16.8125 -24.203125 19.03125 -23.664062 21 -22.59375 C 22.96875 -21.53125 24.519531 -20.0625 25.65625 -18.1875 C 26.789062 -16.320312 27.359375 -14.222656 27.359375 -11.890625 C 27.359375 -9.554688 26.789062 -7.453125 25.65625 -5.578125 C 24.519531 -3.710938 22.96875 -2.25 21 -1.1875 C 19.03125 -0.125 16.8125 0.40625 14.34375 0.40625 Z M 14.34375 -4.28125 C 15.75 -4.28125 17.015625 -4.601562 18.140625 -5.25 C 19.273438 -5.894531 20.164062 -6.796875 20.8125 -7.953125 C 21.457031 -9.109375 21.78125 -10.421875 21.78125 -11.890625 C 21.78125 -13.367188 21.457031 -14.679688 20.8125 -15.828125 C 20.164062 -16.984375 19.273438 -17.882812 18.140625 -18.53125 C 17.015625 -19.175781 15.75 -19.5 14.34375 -19.5 C 12.9375 -19.5 11.664062 -19.175781 10.53125 -18.53125 C 9.40625 -17.882812 8.519531 -16.984375 7.875 -15.828125 C 7.226562 -14.679688 6.90625 -13.367188 6.90625 -11.890625 C 6.90625 -10.421875 7.226562 -9.109375 7.875 -7.953125 C 8.519531 -6.796875 9.40625 -5.894531 10.53125 -5.25 C 11.664062 -4.601562 12.9375 -4.28125 14.34375 -4.28125 Z M 14.34375 -4.28125 "/></g></g></g><g fill="#121212" fill-opacity="1"><g transform="translate(284.203991, 217.499986)"><g><path d="M 17.984375 0 L 13.390625 -6.625 L 8.328125 -6.625 L 8.328125 0 L 2.828125 0 L 2.828125 -23.796875 L 13.125 -23.796875 C 15.226562 -23.796875 17.054688 -23.441406 18.609375 -22.734375 C 20.160156 -22.035156 21.351562 -21.039062 22.1875 -19.75 C 23.03125 -18.457031 23.453125 -16.925781 23.453125 -15.15625 C 23.453125 -13.382812 23.023438 -11.859375 22.171875 -10.578125 C 21.328125 -9.304688 20.125 -8.328125 18.5625 -7.640625 L 23.890625 0 Z M 17.875 -15.15625 C 17.875 -16.488281 17.441406 -17.507812 16.578125 -18.21875 C 15.722656 -18.9375 14.46875 -19.296875 12.8125 -19.296875 L 8.328125 -19.296875 L 8.328125 -11.015625 L 12.8125 -11.015625 C 14.46875 -11.015625 15.722656 -11.375 16.578125 -12.09375 C 17.441406 -12.820312 17.875 -13.84375 17.875 -15.15625 Z M 17.875 -15.15625 "/></g></g></g><g fill="#121212" fill-opacity="1"><g transform="translate(309.173911, 217.499986)"><g><path d="M 11.484375 -9.34375 L 8.296875 -6.015625 L 8.296875 0 L 2.828125 0 L 2.828125 -23.796875 L 8.296875 -23.796875 L 8.296875 -12.671875 L 18.828125 -23.796875 L 24.9375 -23.796875 L 15.09375 -13.1875 L 25.515625 0 L 19.09375 0 Z M 11.484375 -9.34375 "/></g></g></g></svg>