<svg width="211" height="164" viewBox="0 0 211 164" fill="none" xmlns="http://www.w3.org/2000/svg">
<mask id="mask0_22_80" style="mask-type:luminance" maskUnits="userSpaceOnUse" x="0" y="0" width="91" height="163">
<path d="M0.447906 0.572922H90.8437V162.667H0.447906V0.572922Z" fill="white"/>
</mask>
<g mask="url(#mask0_22_80)">
<path d="M41.0677 162.443L72.1667 117.521H106.5V162.443H143.802V1.20834H74.0052C59.7396 1.20834 47.3437 3.59376 36.8281 8.35418C26.2917 13.099 18.1927 19.849 12.5156 28.6042C6.82291 37.3646 3.97395 47.7292 3.97395 59.7083C3.97395 71.6823 6.86457 82.0156 12.6302 90.6875C18.3854 99.3698 26.5625 106.01 37.151 110.615L0.979156 162.443H41.0677ZM41.776 59.7083C41.776 50.6563 44.6979 43.7083 50.526 38.8646C56.3594 34.0208 64.875 31.599 76.0833 31.599H106.5V87.8125H76.0833C64.875 87.8125 56.3594 85.3698 50.526 80.4583C44.6979 75.5365 41.776 68.625 41.776 59.7083Z" fill="#00BF63"/>
</g>
<mask id="mask1_22_80" style="mask-type:luminance" maskUnits="userSpaceOnUse" x="100" y="0" width="111" height="164">
<path d="M100 0.114594H210.667V163.958H100V0.114594Z" fill="white"/>
</mask>
<g mask="url(#mask1_22_80)">
<path d="M158.25 162.99C169.01 162.99 178.896 160.979 187.901 156.969C196.906 152.953 204.286 147.245 210.036 139.833L189.594 115.302C180.964 126.958 171.12 132.786 160.068 132.786C145.078 132.786 137.578 124.005 137.578 106.443V30.8021H193.453V1.27084H101.005V104.396C101.005 123.927 105.854 138.578 115.562 148.344C125.255 158.109 139.479 162.99 158.25 162.99Z" fill="white"/>
</g>
</svg>
