<svg width="210" height="218" viewBox="0 0 210 218" fill="none" xmlns="http://www.w3.org/2000/svg">
<g clip-path="url(#clip0_22_57)">
<mask id="mask0_22_57" style="mask-type:luminance" maskUnits="userSpaceOnUse" x="0" y="0" width="91" height="163">
<path d="M0.447906 0.328125H90.8437V162.333H0.447906V0.328125Z" fill="white"/>
</mask>
<g mask="url(#mask0_22_57)">
<path d="M41.0677 162.198L72.1667 117.281H106.5V162.198H143.802V0.96875H74.0052C59.7396 0.96875 47.3437 3.35417 36.8281 8.10938C26.2917 12.8542 18.1927 19.6094 12.5156 28.3646C6.82291 37.125 3.97395 47.4844 3.97395 59.4635C3.97395 71.4427 6.86457 81.776 12.6302 90.4479C18.3854 99.125 26.5625 105.766 37.151 110.37L0.979156 162.198H41.0677ZM41.776 59.4635C41.776 50.4115 44.6979 43.4688 50.526 38.6198C56.3594 33.7813 64.875 31.3542 76.0833 31.3542H106.5V87.5729H76.0833C64.875 87.5729 56.3594 85.125 50.526 80.2188C44.6979 75.2969 41.776 68.3802 41.776 59.4635Z" fill="#00BF63"/>
</g>
<path d="M158.25 162.75C169.01 162.75 178.896 160.74 187.901 156.724C196.906 152.714 204.286 147.005 210.036 139.589L189.594 115.057C180.964 126.719 171.12 132.542 160.068 132.542C145.078 132.542 137.578 123.766 137.578 106.198V30.5573H193.453V1.03125H101.005V104.151C101.005 123.682 105.854 138.333 115.562 148.099C125.255 157.865 139.479 162.75 158.25 162.75Z" fill="white"/>
<path d="M29.0845 217.85V190.642H12.2303V184.246H53.5012V190.642H36.6678V217.85H29.0845Z" fill="white"/>
<path d="M78.3647 218.329C73.4324 218.329 69.4116 217.652 66.3022 216.287C63.2032 214.928 60.9168 212.954 59.448 210.371C57.9741 207.777 57.2397 204.652 57.2397 200.996C57.2397 197.36 57.9741 194.256 59.448 191.683C60.9168 189.1 63.2032 187.136 66.3022 185.787C69.4116 184.444 73.4324 183.766 78.3647 183.766C83.2814 183.766 87.2866 184.449 90.3855 185.808C93.4949 187.173 95.7866 189.136 97.2605 191.704C98.7293 194.261 99.4689 197.36 99.4689 200.996C99.4689 204.652 98.7293 207.766 97.2605 210.35C95.7866 212.923 93.4949 214.891 90.3855 216.266C87.2866 217.641 83.2814 218.329 78.3647 218.329ZM78.3647 211.954C83.0991 211.954 86.5366 211.1 88.6772 209.391C90.8126 207.673 91.8855 204.871 91.8855 200.996C91.8855 197.162 90.823 194.402 88.698 192.704C86.573 191.011 83.1251 190.162 78.3647 190.162C73.6251 190.162 70.1824 191.006 68.0314 192.683C65.8907 194.365 64.823 197.136 64.823 200.996C64.823 204.871 65.8907 207.673 68.0314 209.391C70.1824 211.1 73.6251 211.954 78.3647 211.954Z" fill="white"/>
<path d="M103.688 217.85V184.246H111.271V202.829L137.584 184.246H149.375L128.834 198.933L149.375 217.85H138.875L123.125 203.162L111.271 211.412V217.85H103.688Z" fill="white"/>
<path d="M172.654 217.85V206.808L153.112 184.246H162.467L176.446 200.371L190.446 184.246H199.758L180.237 206.808V217.85H172.654Z" fill="white"/>
</g>
<defs>
<clipPath id="clip0_22_57">
<rect width="210" height="218" fill="white"/>
</clipPath>
</defs>
</svg>
