<svg width="402" height="102" viewBox="0 0 402 102" fill="none" xmlns="http://www.w3.org/2000/svg">
<g clip-path="url(#clip0_22_2)">
<mask id="mask0_22_2" style="mask-type:luminance" maskUnits="userSpaceOnUse" x="0" y="0" width="58" height="102">
<path d="M0.458328 0.203125H57.3594V101.63H0.458328V0.203125Z" fill="white"/>
</mask>
<g mask="url(#mask0_22_2)">
<path d="M25.7865 101.182L45.1875 73.1563H66.6094V101.182H89.875V0.598969H46.3385C37.4375 0.598969 29.7031 2.08855 23.1406 5.05209C16.5729 8.01564 11.5156 12.2292 7.97395 17.6875C4.42187 23.1511 2.64583 29.6198 2.64583 37.0886C2.64583 44.5625 4.45312 51.0104 8.04687 56.4167C11.6354 61.8333 16.7396 65.9792 23.3437 68.849L0.781242 101.182H25.7865ZM26.2292 37.0886C26.2292 31.4427 28.0521 27.1094 31.6875 24.0886C35.3281 21.0677 40.6406 19.5573 47.6302 19.5573H66.6094V54.625H47.6302C40.6406 54.625 35.3281 53.099 31.6875 50.0365C28.0521 46.9688 26.2292 42.6511 26.2292 37.0886Z" fill="#00BF63"/>
</g>
<mask id="mask1_22_2" style="mask-type:luminance" maskUnits="userSpaceOnUse" x="62" y="-1" width="70" height="104">
<path d="M62.6667 -0.0833282H132V102.172H62.6667V-0.0833282Z" fill="white"/>
</mask>
<g mask="url(#mask1_22_2)">
<path d="M98.9062 101.521C105.62 101.521 111.781 100.266 117.401 97.7656C123.021 95.2604 127.625 91.6979 131.208 87.0781L118.458 71.7708C113.073 79.0469 106.932 82.6823 100.036 82.6823C90.6875 82.6823 86.0104 77.2031 86.0104 66.2448V19.0573H120.865V0.635422H63.1927V64.9688C63.1927 77.151 66.2187 86.2917 72.276 92.3854C78.3229 98.474 87.1927 101.521 98.9062 101.521Z" fill="white"/>
</g>
<path d="M159.373 16.2708H149.228V10.2708H176.853V16.2708H166.707V42H159.373V16.2708Z" fill="white"/>
<path d="M196.159 42.5417C192.867 42.5417 189.893 41.8333 187.242 40.4167C184.601 39 182.534 37.0521 181.034 34.5625C179.544 32.0625 178.804 29.2604 178.804 26.1458C178.804 23.0364 179.544 20.2396 181.034 17.75C182.534 15.25 184.601 13.2917 187.242 11.875C189.893 10.4479 192.867 9.72916 196.159 9.72916C199.45 9.72916 202.409 10.4479 205.034 11.875C207.659 13.2917 209.726 15.25 211.242 17.75C212.752 20.2396 213.513 23.0364 213.513 26.1458C213.513 29.2604 212.752 32.0625 211.242 34.5625C209.726 37.0521 207.659 39 205.034 40.4167C202.409 41.8333 199.45 42.5417 196.159 42.5417ZM196.159 36.2917C198.034 36.2917 199.721 35.8646 201.221 35C202.732 34.1406 203.919 32.9375 204.784 31.3958C205.643 29.8542 206.075 28.1042 206.075 26.1458C206.075 24.1771 205.643 22.4271 204.784 20.8958C203.919 19.3542 202.732 18.1562 201.221 17.2917C199.721 16.4323 198.034 16 196.159 16C194.284 16 192.586 16.4323 191.075 17.2917C189.575 18.1562 188.393 19.3542 187.534 20.8958C186.669 22.4271 186.242 24.1771 186.242 26.1458C186.242 28.1042 186.669 29.8542 187.534 31.3958C188.393 32.9375 189.575 34.1406 191.075 35C192.586 35.8646 194.284 36.2917 196.159 36.2917Z" fill="white"/>
<path d="M230.577 29.5416L226.327 33.9791V42H219.035V10.2708H226.327V25.1041L240.368 10.2708H248.514L235.389 24.4166L249.285 42H240.723L230.577 29.5416Z" fill="white"/>
<path d="M267.763 30.7708V42H260.43V30.6666L248.159 10.2708H255.951L264.409 24.375L272.888 10.2708H280.096L267.763 30.7708Z" fill="white"/>
<path d="M181.894 59.2708V91H175.873L160.061 71.75V91H152.811V59.2708H158.873L174.644 78.5416V59.2708H181.894Z" fill="white"/>
<path d="M213.953 85.1041V91H189.411V59.2708H213.369V65.1666H196.703V72.0625H211.432V77.7708H196.703V85.1041H213.953Z" fill="white"/>
<path d="M226.368 65.2708H216.222V59.2708H243.847V65.2708H233.701V91H226.368V65.2708Z" fill="white"/>
<path d="M295.736 59.2708L285.361 91H277.465L270.486 69.5208L263.278 91H255.444L245.028 59.2708H252.632L259.799 81.5833L267.278 59.2708H274.069L281.319 81.75L288.715 59.2708H295.736Z" fill="white"/>
<path d="M315.833 91.5417C312.541 91.5417 309.567 90.8333 306.916 89.4167C304.276 88 302.208 86.0521 300.708 83.5625C299.218 81.0625 298.479 78.2604 298.479 75.1458C298.479 72.0364 299.218 69.2396 300.708 66.75C302.208 64.25 304.276 62.2917 306.916 60.875C309.567 59.4479 312.541 58.7292 315.833 58.7292C319.125 58.7292 322.083 59.4479 324.708 60.875C327.333 62.2917 329.401 64.25 330.916 66.75C332.427 69.2396 333.187 72.0364 333.187 75.1458C333.187 78.2604 332.427 81.0625 330.916 83.5625C329.401 86.0521 327.333 88 324.708 89.4167C322.083 90.8333 319.125 91.5417 315.833 91.5417ZM315.833 85.2917C317.708 85.2917 319.396 84.8646 320.896 84C322.406 83.1406 323.593 81.9375 324.458 80.3958C325.317 78.8542 325.75 77.1042 325.75 75.1458C325.75 73.1771 325.317 71.4271 324.458 69.8958C323.593 68.3542 322.406 67.1562 320.896 66.2917C319.396 65.4323 317.708 65 315.833 65C313.958 65 312.26 65.4323 310.75 66.2917C309.25 67.1562 308.067 68.3542 307.208 69.8958C306.343 71.4271 305.916 73.1771 305.916 75.1458C305.916 77.1042 306.343 78.8542 307.208 80.3958C308.067 81.9375 309.25 83.1406 310.75 84C312.26 84.8646 313.958 85.2917 315.833 85.2917Z" fill="white"/>
<path d="M358.918 91L352.793 82.1666H346.043V91H338.709V59.2708H352.439C355.241 59.2708 357.678 59.7448 359.751 60.6875C361.819 61.6198 363.407 62.9479 364.522 64.6666C365.647 66.3906 366.209 68.4323 366.209 70.7916C366.209 73.1562 365.637 75.1875 364.501 76.8958C363.376 78.5937 361.772 79.8958 359.689 80.8125L366.793 91H358.918ZM358.772 70.7916C358.772 69.0156 358.194 67.6562 357.043 66.7083C355.902 65.75 354.23 65.2708 352.022 65.2708H346.043V76.3125H352.022C354.23 76.3125 355.902 75.8333 357.043 74.875C358.194 73.9062 358.772 72.5416 358.772 70.7916Z" fill="white"/>
<path d="M383.544 78.5416L379.294 82.9791V91H372.003V59.2708H379.294V74.1041L393.336 59.2708H401.482L388.357 73.4166L402.253 91H393.69L383.544 78.5416Z" fill="white"/>
</g>
<defs>
<clipPath id="clip0_22_2">
<rect width="402" height="102" fill="white"/>
</clipPath>
</defs>
</svg>
